<?xml version="1.0" encoding="UTF-8"?>
<svg xmlns="http://www.w3.org/2000/svg" xmlns:xlink="http://www.w3.org/1999/xlink" width="100px" height="100px" viewBox="0 0 480 480" version="1.1">
<g id="surface415804">
<path style=" stroke:none;fill-rule:nonzero;fill:rgb(27.058824%,35.294118%,39.215686%);fill-opacity:1;" d="M 403 157 C 409 140 415 107 399 70 C 354 70 316 102 310 108 C 288 103 264 101 240 101 C 215 101 191 104 168 109 C 137 77 96 70 80 70 C 80 70 71 88 71 120 C 71 140 76 152 79 158 C 55 183 40 217 40 261 C 40 373 111 411 240 411 C 369 411 440 373 440 261 C 440 215 426 181 403 157 Z M 403 157 "/>
<path style=" stroke:none;fill-rule:nonzero;fill:rgb(100%,80%,73.72549%);fill-opacity:1;" d="M 240 390 C 158 390 90 376 90 300 C 90 271 106 255 117 245 C 142 223 184 233 240 233 C 281 233 316 226 344 235 C 372 244 390 270 390 298 C 390 377 350 390 240 390 Z M 240 390 "/>
<path style=" stroke:none;fill-rule:nonzero;fill:rgb(84.705882%,26.27451%,8.235294%);fill-opacity:1;" d="M 250 340 C 250 346 246 350 240 350 C 234 350 230 346 230 340 C 230 334 234 330 240 330 C 246 330 250 334 250 340 Z M 265 365 C 267 363 267 360 265 358 C 263 356 260 356 258 358 C 249 367 232 367 223 358 C 221 356 218 356 216 358 C 214 360 214 363 216 365 C 223 372 231 375 241 375 C 251 375 258 371 265 365 Z M 265 365 "/>
<path style=" stroke:none;fill-rule:nonzero;fill:rgb(100%,100%,100%);fill-opacity:1;" d="M 190 295 C 190 320 177 340 160 340 C 143 340 130 320 130 295 C 130 270 143 250 160 250 C 177 250 190 270 190 295 Z M 320 250 C 303 250 290 270 290 295 C 290 320 303 340 320 340 C 337 340 350 320 350 295 C 350 270 337 250 320 250 Z M 320 250 "/>
<path style=" stroke:none;fill-rule:nonzero;fill:rgb(42.745098%,29.803922%,25.490196%);fill-opacity:1;" d="M 340 300 C 340 317 331 330 320 330 C 309 330 300 317 300 300 C 300 298 300 295 301 293 C 302 297 306 300 310 300 C 316 300 320 296 320 290 C 320 284 316 280 310 280 C 308 280 306 281 304 282 C 308 275 313 270 320 270 C 331 270 340 283 340 300 Z M 160 270 C 153 270 148 275 144 282 C 146 281 148 280 150 280 C 156 280 160 284 160 290 C 160 296 156 300 150 300 C 146 300 142 297 141 293 C 141 295 140 298 140 300 C 140 317 149 330 160 330 C 171 330 180 317 180 300 C 180 283 171 270 160 270 Z M 160 270 "/>
</g>
</svg>
