<svg xmlns="http://www.w3.org/2000/svg"  viewBox="0 0 64 64" width="100px" height="100px"><linearGradient id="FMAn0bq0UAnkLGBoSsg4aa" x1="41.007" x2="41.007" y1="50.891" y2="58.132" gradientUnits="userSpaceOnUse"><stop offset="0" stop-color="#1a6dff"/><stop offset="1" stop-color="#c822ff"/></linearGradient><path fill="url(#FMAn0bq0UAnkLGBoSsg4aa)" d="M37.432,54.44c0-1.196,0.294-2.09,0.883-2.669c0.589-0.586,1.488-0.88,2.696-0.88	c1.216,0,2.115,0.293,2.696,0.887c0.581,0.594,0.876,1.504,0.876,2.729c0,1.233-0.294,2.143-0.876,2.737	c-0.581,0.594-1.48,0.887-2.696,0.887c-1.232,0-2.131-0.301-2.712-0.895C37.718,56.65,37.432,55.71,37.432,54.44z M41.011,52.086	c-0.643,0-1.131,0.195-1.449,0.586s-0.48,0.985-0.48,1.775c0,0.857,0.155,1.489,0.465,1.887c0.31,0.399,0.798,0.602,1.464,0.602	c0.659,0,1.147-0.195,1.457-0.594c0.318-0.399,0.473-1.008,0.473-1.827c0-0.827-0.155-1.436-0.473-1.835	C42.158,52.282,41.67,52.086,41.011,52.086z"/><linearGradient id="FMAn0bq0UAnkLGBoSsg4ab" x1="48.779" x2="48.779" y1="51" y2="57.992" gradientUnits="userSpaceOnUse"><stop offset="0" stop-color="#1a6dff"/><stop offset="1" stop-color="#c822ff"/></linearGradient><path fill="url(#FMAn0bq0UAnkLGBoSsg4ab)" d="M45.622,51h1.906l2.937,5.021L50.394,51h1.542v6.992h-1.751l-3.084-5.286l0.07,5.286h-1.55	L45.622,51L45.622,51z"/><linearGradient id="FMAn0bq0UAnkLGBoSsg4ac" x1="14.477" x2="14.477" y1="51" y2="57.992" gradientUnits="userSpaceOnUse"><stop offset="0" stop-color="#1a6dff"/><stop offset="1" stop-color="#c822ff"/></linearGradient><path fill="url(#FMAn0bq0UAnkLGBoSsg4ac)" d="M15.039,57.992c-0.674,0-1.17-0.053-1.495-0.166c-0.325-0.106-0.62-0.302-0.876-0.566	c-0.24-0.242-0.403-0.513-0.504-0.815s-0.147-0.732-0.147-1.284V51h1.511v4.108c0,0.408,0.015,0.695,0.054,0.861	c0.039,0.166,0.101,0.302,0.194,0.4c0.139,0.166,0.318,0.279,0.527,0.355c0.209,0.068,0.496,0.106,0.86,0.106h1.774v1.163	L15.039,57.992L15.039,57.992z"/><linearGradient id="FMAn0bq0UAnkLGBoSsg4ad" x1="20.676" x2="20.676" y1="51" y2="57.997" gradientUnits="userSpaceOnUse"><stop offset="0" stop-color="#1a6dff"/><stop offset="1" stop-color="#c822ff"/></linearGradient><path fill="url(#FMAn0bq0UAnkLGBoSsg4ad)" d="M19.053,51v4.141c0,0.65,0.124,1.099,0.364,1.353c0.24,0.254,0.659,0.381,1.255,0.381	c0.589,0,1.007-0.127,1.247-0.381c0.24-0.254,0.364-0.703,0.364-1.353V51h1.511v4.179c0,0.493-0.031,0.882-0.101,1.174	c-0.07,0.292-0.17,0.523-0.318,0.695c-0.287,0.329-0.643,0.568-1.085,0.718c-0.434,0.157-0.976,0.232-1.619,0.232	c-0.643,0-1.185-0.075-1.619-0.232c-0.434-0.157-0.798-0.396-1.085-0.718c-0.139-0.164-0.248-0.389-0.31-0.673	c-0.062-0.284-0.101-0.68-0.101-1.189v-4.179h1.495V51z"/><linearGradient id="FMAn0bq0UAnkLGBoSsg4ae" x1="29.292" x2="29.292" y1="51" y2="57.992" gradientUnits="userSpaceOnUse"><stop offset="0" stop-color="#1a6dff"/><stop offset="1" stop-color="#c822ff"/></linearGradient><path fill="url(#FMAn0bq0UAnkLGBoSsg4ae)" d="M25.251,51h2.216l1.829,5.369L31.124,51h2.208v6.992h-1.48l0.124-5.444l-1.836,5.444h-1.604	l-1.898-5.505l0.155,5.505h-1.534V51H25.251z"/><linearGradient id="FMAn0bq0UAnkLGBoSsg4af" x1="35.615" x2="35.615" y1="51" y2="57.992" gradientUnits="userSpaceOnUse"><stop offset="0" stop-color="#1a6dff"/><stop offset="1" stop-color="#c822ff"/></linearGradient><path fill="url(#FMAn0bq0UAnkLGBoSsg4af)" d="M36.401,57.992h-1.573V51h1.573V57.992z"/><linearGradient id="FMAn0bq0UAnkLGBoSsg4ag" x1="32" x2="32" y1="6" y2="49" gradientUnits="userSpaceOnUse"><stop offset="0" stop-color="#6dc7ff"/><stop offset="1" stop-color="#e6abff"/></linearGradient><path fill="url(#FMAn0bq0UAnkLGBoSsg4ag)" d="M47.453,48.659c-0.651-0.38-0.651-0.38-0.906-0.519c-0.503-0.279-0.868-0.465-1.371-0.705 s-1.022-0.434-1.549-0.48c-0.263-0.023-0.527-0.008-0.782,0.046s-0.503,0.163-0.728,0.294c-0.232,0.147-0.442,0.318-0.612,0.519 c-0.178,0.201-0.31,0.434-0.411,0.689c-0.062,0.163-0.108,0.318-0.132,0.496h6.824c-0.062-0.077-0.124-0.124-0.194-0.194 C47.546,48.752,47.5,48.705,47.453,48.659z M22.852,48.427c-0.48-0.139-0.961-0.256-1.456-0.318 c-0.488-0.062-0.984-0.077-1.479-0.016c-0.124,0.016-0.24,0.039-0.364,0.062c-0.116,0.023-0.24,0.054-0.356,0.093 c-0.232,0.07-0.465,0.17-0.682,0.287c-0.279,0.147-0.542,0.295-0.798,0.465h6.956c-0.132-0.046-0.256-0.062-0.387-0.109 C23.805,48.729,23.332,48.566,22.852,48.427z M12,6v43h5.469c0.302-0.232,0.62-0.442,0.953-0.643 c0.225-0.132,0.457-0.24,0.705-0.325c0.124-0.046,0.248-0.085,0.372-0.116c0.124-0.031,0.256-0.054,0.38-0.077 c0.511-0.085,1.03-0.093,1.549-0.046c0.511,0.046,1.022,0.147,1.518,0.263c0.442,0.108,0.875,0.232,1.309,0.364l-0.093-0.093 c-0.256-0.248-0.527-0.48-0.767-0.744c-0.116-0.132-0.232-0.279-0.318-0.434c-0.093-0.155-0.163-0.325-0.201-0.503 c-0.093-0.349-0.085-0.713-0.039-1.061c-0.023,0.349-0.008,0.713,0.101,1.046c0.054,0.163,0.132,0.325,0.225,0.465 c0.093,0.147,0.209,0.279,0.333,0.395c0.248,0.248,0.527,0.457,0.798,0.689c0.139,0.116,0.279,0.24,0.403,0.372 c0.147,0.046,0.294,0.085,0.434,0.124l0.101,0.031l0.093,0.031l0.178,0.054l0.364,0.116c0.116,0.039,0.232,0.054,0.341,0.093 h14.477c0.023-0.209,0.054-0.395,0.124-0.597c0.093-0.287,0.232-0.565,0.418-0.813s0.418-0.449,0.666-0.627 c0.256-0.178,0.534-0.31,0.837-0.403c0.232-0.07,0.472-0.101,0.713-0.108c-0.145-0.038-0.297-0.076-0.442-0.114 c-0.846-0.222-1.723-0.303-2.596-0.247c-0.939,0.06-1.878,0.188-2.833,0.307c-0.922,0.116-1.859,0.232-2.796,0.248 c-0.232,0.008-0.473,0-0.705-0.008c-0.24-0.015-0.48-0.046-0.713-0.085c-0.465-0.078-0.914-0.186-1.371-0.271 c-0.457-0.085-0.914-0.155-1.371-0.147c-0.232,0-0.457,0.023-0.682,0.077c-0.225,0.054-0.442,0.147-0.627,0.279 c0.178-0.147,0.395-0.248,0.62-0.318c0.225-0.07,0.457-0.108,0.689-0.124c0.473-0.031,0.937,0.016,1.402,0.07 c0.465,0.054,0.922,0.132,1.379,0.186c0.225,0.023,0.457,0.047,0.682,0.039c0.225-0.008,0.457-0.016,0.689-0.031 c1.836-0.139,3.633-0.651,5.507-0.875c0.968-0.124,1.937-0.07,2.889,0.085c0.953,0.163,1.882,0.434,2.773,0.829 c0.093,0.039,0.178,0.085,0.271,0.124c-0.163-0.186-0.333-0.372-0.511-0.55c-0.775-0.775-1.673-1.448-2.634-2.068 c-0.48-0.31-0.976-0.604-1.487-0.898c-0.511-0.294-1.046-0.604-1.557-0.953c-0.38-0.256-0.751-0.527-1.108-0.821 c-0.868,0.047-1.743,0.201-2.618,0.403c-0.991,0.225-1.991,0.511-3.013,0.759s-2.068,0.465-3.145,0.542 c-0.534,0.039-1.077,0.047-1.611,0.008c-0.271-0.023-0.534-0.046-0.806-0.093l-0.201-0.031l-0.194-0.039 c-0.132-0.023-0.263-0.054-0.387-0.085c-0.519-0.116-1.022-0.256-1.526-0.395c-0.496-0.132-0.991-0.256-1.479-0.302 c-0.496-0.046-0.991-0.016-1.479,0.101c-0.248,0.054-0.488,0.132-0.728,0.217c-0.116,0.039-0.24,0.093-0.356,0.139 c-0.116,0.046-0.248,0.101-0.372,0.147c-0.992,0.372-2.029,0.565-3.06,0.697c-1.03,0.139-2.068,0.248-3.075,0.496 c0.999-0.302,2.029-0.472,3.052-0.658c1.022-0.194,2.029-0.434,2.967-0.844c0.116-0.054,0.232-0.101,0.349-0.163 c0.124-0.054,0.24-0.108,0.364-0.163c0.248-0.101,0.496-0.194,0.759-0.271c0.519-0.147,1.069-0.217,1.611-0.194 c0.279,0.016,0.55,0.047,0.821,0.085c-0.356-0.209-0.697-0.442-1.038-0.682c-0.875-0.627-1.696-1.325-2.603-1.882 c-0.906-0.573-1.828-1.115-2.742-1.681c-0.906-0.565-1.805-1.17-2.626-1.859c0.837,0.674,1.743,1.255,2.657,1.805 c0.922,0.55,1.859,1.069,2.781,1.627c0.93,0.542,1.766,1.232,2.649,1.828c0.564,0.386,1.141,0.747,1.762,1.001 c0.006,0.002,0.013,0.004,0.02,0.006c0.48,0.101,0.945,0.209,1.417,0.286c0.124,0.023,0.248,0.039,0.38,0.062l0.372,0.047 c0.248,0.023,0.496,0.039,0.751,0.046c0.503,0.008,0.999-0.023,1.503-0.085c0.999-0.124,1.983-0.38,2.967-0.682 c0.093-0.023,0.178-0.054,0.271-0.085c-0.534-0.341-1.084-0.666-1.642-1.007c-0.782-0.48-1.565-1.03-2.239-1.704l-0.968-0.961 c-0.325-0.318-0.651-0.62-0.999-0.891s-0.72-0.496-1.123-0.658c-0.194-0.077-0.403-0.147-0.604-0.194l-0.108,0.279 c0.132,0.194,0.054,0.503-0.519,0.953c-0.596,0.465-1.387,0.511-1.387,0.511s0.232-0.759,0.829-1.224 c0.511-0.403,0.813-0.449,0.992-0.333l0.085-0.217c-0.178-0.039-0.364-0.07-0.55-0.093c-0.108-0.016-0.217-0.023-0.333-0.031 s-0.225-0.016-0.341-0.023c-0.225-0.015-0.449-0.015-0.682-0.023c-0.457-0.008-0.914-0.008-1.387-0.054 c-0.465-0.046-0.937-0.155-1.363-0.38c-0.108-0.054-0.209-0.116-0.31-0.178l-0.139-0.093l-0.147-0.101l-0.011-0.007 c-0.664-0.453-1.286-0.966-1.847-1.542c-0.874-0.896-1.72-1.858-2.317-2.967c0.63,1.07,1.487,1.984,2.379,2.819 c0.491,0.46,1.015,0.883,1.567,1.268c0.118,0.082,0.235,0.162,0.353,0.235l0.139,0.093l0.147,0.093 c0.093,0.054,0.194,0.108,0.294,0.155c0.395,0.186,0.837,0.271,1.278,0.302s0.898,0.016,1.356,0h0.085l-0.008-0.263 c-0.201,0.008-0.449-0.163-0.751-0.682c-0.38-0.651-0.325-1.441-0.325-1.441s0.72,0.333,1.1,0.984 c0.38,0.651,0.333,0.968,0.116,1.092c-0.008,0.008-0.023,0.008-0.031,0.015l0.008,0.294h0.496c0.116,0,0.24,0.008,0.349,0.008 c0.116,0,0.232,0.008,0.349,0.023c0.472,0.039,0.945,0.132,1.394,0.294c0.449,0.163,0.875,0.395,1.263,0.674 c0.387,0.271,0.736,0.581,1.084,0.891l1.015,0.93c0.643,0.604,1.387,1.092,2.177,1.534c0.736,0.418,1.51,0.821,2.254,1.301 c0.581-0.186,1.162-0.372,1.758-0.542c0.511-0.147,1.03-0.279,1.557-0.387c0.054-0.008,0.116-0.023,0.17-0.031 c-0.17-0.194-0.325-0.395-0.48-0.596c-0.38-0.519-0.689-1.069-0.953-1.642c-0.263-0.573-0.472-1.154-0.643-1.735l-0.062-0.217 l-0.031-0.108l-0.031-0.116l-0.108-0.434c-0.07-0.294-0.139-0.581-0.209-0.875c-0.039-0.186-0.085-0.38-0.124-0.565 c-0.72-0.124-1.41-0.364-2.06-0.651c-0.682-0.302-1.325-0.651-1.96-0.991c-0.635-0.341-1.27-0.658-1.937-0.906 c-0.658-0.248-1.348-0.403-2.053-0.418h-0.263c-0.093,0-0.186,0-0.279-0.008c-0.186-0.008-0.372-0.031-0.558-0.054 c-0.2-0.029-0.395-0.067-0.589-0.112c-0.775-0.179-1.527-0.468-2.213-0.871c-0.73-0.428-1.395-0.956-1.938-1.597 c-0.473-0.558-0.837-1.208-1.03-1.906c0.225,0.689,0.612,1.317,1.1,1.844c0.488,0.527,1.069,0.968,1.689,1.317 c0.62,0.356,1.294,0.62,1.975,0.798c0.341,0.085,0.697,0.155,1.046,0.186c0.178,0.016,0.349,0.023,0.527,0.023 c0.085,0,0.178,0,0.263-0.008c0.093-0.008,0.186-0.008,0.279-0.008c0.751-0.016,1.503,0.116,2.208,0.349 c0.713,0.225,1.387,0.534,2.037,0.844c0.658,0.31,1.301,0.627,1.96,0.883c0.542,0.209,1.084,0.38,1.642,0.472 c-0.023-0.132-0.046-0.256-0.062-0.387c-0.085-0.542-0.147-1.084-0.178-1.627c-0.596-0.24-1.177-0.534-1.72-0.883 c-0.596-0.387-1.146-0.844-1.65-1.34c-1.007-0.999-1.797-2.161-2.486-3.362c-0.047-0.077-0.085-0.155-0.132-0.24 c-0.263,0.225-0.573,0.395-0.883,0.511c-0.387,0.139-0.798,0.217-1.208,0.24c-0.411,0.016-0.821-0.023-1.216-0.139 c-0.194-0.062-0.387-0.139-0.565-0.256c-0.178-0.108-0.333-0.232-0.496-0.356c-0.163-0.124-0.318-0.24-0.488-0.333 c-0.085-0.047-0.17-0.085-0.263-0.124l-0.279-0.108c-0.372-0.139-0.751-0.263-1.139-0.395c-0.759-0.256-1.526-0.503-2.254-0.844 c0.736,0.318,1.503,0.55,2.27,0.782c0.387,0.116,0.767,0.232,1.146,0.364l0.287,0.101c0.093,0.031,0.194,0.07,0.287,0.124 c0.186,0.093,0.349,0.209,0.511,0.325c0.163,0.116,0.325,0.232,0.496,0.333s0.349,0.17,0.534,0.225 c0.38,0.101,0.775,0.132,1.162,0.101c0.387-0.031,0.775-0.116,1.139-0.256c0.31-0.124,0.604-0.294,0.844-0.527 c-1.239-2.277-2.153-4.686-3.416-6.933c0.534,0.844,1.015,1.72,1.479,2.603c0.263-0.217,0.473-0.503,0.604-0.829 c0.147-0.356,0.225-0.744,0.294-1.131c0.077-0.387,0.139-0.782,0.294-1.154c0.077-0.186,0.17-0.364,0.294-0.519 c0.05-0.062,0.122-0.102,0.181-0.156c-0.054,0.057-0.107,0.115-0.15,0.179c-0.116,0.163-0.201,0.341-0.263,0.519 c-0.124,0.372-0.17,0.759-0.225,1.154c-0.054,0.395-0.108,0.79-0.24,1.177c-0.07,0.194-0.155,0.38-0.271,0.558 c-0.108,0.163-0.24,0.31-0.387,0.442c0.132,0.256,0.271,0.511,0.403,0.767c0.635,1.216,1.278,2.432,2.006,3.586 c0.728,1.146,1.557,2.239,2.556,3.137c0.496,0.449,1.03,0.844,1.603,1.177c0.418,0.248,0.86,0.457,1.317,0.627 c-0.008-0.38,0-0.767,0.015-1.146c0.054-0.93,0.194-1.851,0.418-2.75c-0.349,0.031-0.697-0.008-1.03-0.108 c-0.356-0.101-0.682-0.271-0.984-0.472c-0.604-0.411-1.092-0.953-1.472-1.565c-0.38-0.604-0.651-1.278-0.782-1.983 c-0.062-0.349-0.093-0.713-0.07-1.069s0.101-0.713,0.248-1.046c0.07-0.17,0.163-0.325,0.271-0.472 c0.108-0.147,0.232-0.279,0.372-0.395c0.279-0.232,0.596-0.403,0.906-0.565c0.31-0.163,0.627-0.318,0.914-0.519 c0.147-0.101,0.279-0.209,0.411-0.325c0.132-0.124,0.256-0.24,0.372-0.372c0.232-0.263,0.418-0.565,0.542-0.891 c0.132-0.325,0.209-0.674,0.24-1.022c0.062-0.705-0.039-1.41-0.163-2.099c0.132,0.689,0.24,1.394,0.194,2.099 c-0.023,0.356-0.093,0.705-0.225,1.038c-0.124,0.333-0.31,0.643-0.542,0.914c-0.116,0.139-0.24,0.263-0.364,0.387 c-0.132,0.124-0.263,0.24-0.411,0.341c-0.287,0.209-0.604,0.372-0.914,0.534c-0.31,0.163-0.62,0.341-0.875,0.565 c-0.263,0.225-0.465,0.503-0.596,0.829c-0.263,0.643-0.271,1.363-0.139,2.037c0.139,0.682,0.411,1.332,0.79,1.913 c0.38,0.581,0.852,1.1,1.433,1.472c0.287,0.186,0.596,0.333,0.922,0.426c0.325,0.093,0.666,0.124,0.999,0.077l0.008,0.101 c0.054-0.217,0.116-0.434,0.186-0.643c0.232-0.705,0.488-1.387,0.759-2.068c-0.031-0.155-0.085-0.302-0.163-0.434 c-0.163-0.294-0.418-0.55-0.682-0.782c-0.263-0.24-0.55-0.457-0.782-0.744c-0.116-0.139-0.209-0.31-0.232-0.488 c-0.023-0.186,0.031-0.364,0.116-0.519c-0.077,0.163-0.124,0.341-0.085,0.511c0.031,0.17,0.139,0.325,0.256,0.449 c0.24,0.256,0.534,0.457,0.821,0.682c0.279,0.225,0.565,0.465,0.767,0.782c0.046,0.07,0.085,0.139,0.116,0.217 c0.573-1.418,1.193-2.804,1.735-4.214c0.023-0.062,0.046-0.116,0.07-0.178l-0.403-0.155c-0.008,0.008-0.008,0.008-0.016,0.016 c-0.194,0.155-0.503,0.093-0.984-0.496c-0.472-0.589-0.534-1.379-0.534-1.379s0.767,0.225,1.239,0.806 c0.38,0.473,0.457,0.767,0.372,0.953l0.372,0.139c0.17-0.449,0.302-0.914,0.403-1.386c0.116-0.565,0.163-1.154,0.124-1.735 c-0.039-0.581-0.147-1.162-0.279-1.735c-0.124-0.573-0.263-1.154-0.38-1.727c0.147,0.573,0.31,1.139,0.465,1.712 c0.155,0.573,0.294,1.146,0.364,1.743c0.062,0.527,0.054,1.069-0.015,1.596l0.232-0.023c-0.031-0.194,0.116-0.465,0.604-0.813 c0.612-0.442,1.402-0.465,1.402-0.465s-0.263,0.751-0.867,1.193c-0.612,0.441-0.93,0.426-1.077,0.225 c-0.008-0.008-0.016-0.016-0.016-0.031l-0.287,0.031c0,0.023-0.008,0.046-0.008,0.077c-0.093,0.596-0.248,1.177-0.442,1.735 c-0.372,1.123-0.798,2.231-1.201,3.339c-0.062,0.163-0.116,0.318-0.17,0.48c0.062-0.062,0.132-0.124,0.194-0.186 c0.225-0.201,0.465-0.395,0.705-0.573c0.124-0.085,0.248-0.178,0.372-0.256l0.186-0.124l0.023-0.015l0.015-0.008l0.008-0.008 h0.008l0.054-0.023c0.031-0.016,0.07-0.031,0.108-0.046c0.139-0.062,0.294-0.101,0.449-0.124c0.147-0.023,0.294-0.046,0.418-0.108 c0.124-0.062,0.232-0.163,0.333-0.271c0.047-0.054,0.101-0.108,0.139-0.17c0.046-0.054,0.085-0.116,0.116-0.186 c0.132-0.263,0.194-0.558,0.263-0.852c0.062-0.294,0.108-0.589,0.17-0.883c-0.054,0.294-0.085,0.596-0.139,0.891 c-0.054,0.294-0.108,0.589-0.232,0.875c-0.031,0.07-0.07,0.139-0.116,0.201c-0.047,0.062-0.093,0.124-0.139,0.178 c-0.101,0.116-0.209,0.225-0.349,0.302c-0.139,0.077-0.302,0.108-0.442,0.132c-0.147,0.031-0.279,0.07-0.411,0.132 c-0.031,0.016-0.062,0.031-0.093,0.047l-0.047,0.031h-0.008l-0.008,0.008l-0.023,0.016l-0.186,0.132 c-0.124,0.085-0.24,0.178-0.356,0.271c-0.232,0.186-0.457,0.38-0.674,0.581c-0.194,0.186-0.372,0.387-0.527,0.596 c-0.07,0.209-0.147,0.418-0.217,0.627c-0.093,0.279-0.178,0.558-0.271,0.837l-0.07,0.209l-0.062,0.209 c-0.039,0.139-0.077,0.279-0.116,0.418c-0.294,1.115-0.449,2.262-0.465,3.408c-0.008,1.146,0.124,2.293,0.349,3.424 c0.116,0.565,0.248,1.131,0.403,1.689c0.077,0.279,0.155,0.558,0.24,0.837l0.132,0.418l0.031,0.101l0.031,0.101l0.07,0.201 c0.38,1.077,0.868,2.084,1.549,2.928c0.674,0.852,1.549,1.526,2.517,2.107c0.48,0.294,0.984,0.558,1.51,0.829l0.047,0.023 c0.039-0.201,0.07-0.403,0.101-0.596c0.062-0.418,0.108-0.837,0.108-1.247c0-0.411-0.054-0.821-0.163-1.224 c-0.108-0.403-0.263-0.798-0.442-1.177c-0.046-0.093-0.093-0.194-0.139-0.287c-0.047-0.093-0.101-0.178-0.155-0.271 c-0.07-0.108-0.085-0.132-0.155-0.232l-0.062-0.008c-0.101-0.023-0.209-0.016-0.318,0s-0.217,0.046-0.325,0.085 c-0.101,0.039-0.201,0.101-0.279,0.178s-0.124,0.194-0.108,0.31c-0.039-0.116-0.016-0.248,0.054-0.356 c0.07-0.108,0.17-0.186,0.271-0.256c0.108-0.07,0.217-0.124,0.341-0.163c0.077-0.023,0.155-0.046,0.24-0.054l-0.023-0.023 c-0.263-0.341-0.542-0.674-0.806-1.022c-0.271-0.349-0.527-0.705-0.728-1.092c-0.201-0.387-0.349-0.813-0.356-1.255 c0.047,0.434,0.217,0.844,0.442,1.201c0.225,0.364,0.503,0.697,0.798,1.015c0.294,0.318,0.596,0.627,0.891,0.961 c0.147,0.163,0.287,0.333,0.426,0.519c0.07,0.093,0.132,0.186,0.194,0.279s0.116,0.194,0.17,0.287 c0.217,0.387,0.418,0.79,0.565,1.216c0,0.008,0.008,0.016,0.008,0.023c0.016-0.016,0.031-0.023,0.047-0.039 c0.062-0.047,0.132-0.085,0.201-0.116c0.132-0.062,0.271-0.116,0.411-0.155c0.279-0.077,0.558-0.132,0.844-0.155 c-0.271,0.07-0.542,0.163-0.798,0.279c-0.124,0.062-0.248,0.124-0.356,0.201s-0.209,0.163-0.248,0.263l-0.008,0.023 c0.101,0.341,0.155,0.666,0.186,1.022c0.039,0.457,0.023,0.914-0.008,1.356c-0.023,0.302-0.054,0.604-0.085,0.898 c0.279,0.147,0.558,0.302,0.829,0.465c0.891,0.519,1.774,1.092,2.595,1.782c0.093-0.496,0.17-0.991,0.24-1.487 c0.07-0.496,0.124-0.991,0.155-1.479c0.016-0.248,0.031-0.488,0.031-0.736v-0.341c0.008,0.031,0-0.039,0-0.031v-0.054 l-0.008-0.077c-0.008-0.054-0.008-0.108-0.016-0.163c-0.054-0.434-0.17-0.86-0.364-1.278c-0.186-0.411-0.434-0.813-0.728-1.201 c-0.287-0.387-0.62-0.767-0.961-1.139l-0.519-0.565l-0.263-0.287l-0.07-0.07l-0.023-0.023l-0.016-0.015l-0.031-0.039l-0.132-0.147 c-0.596-0.682-1.154-1.387-1.658-2.138c-0.139-0.101-0.279-0.209-0.418-0.294c-0.147-0.093-0.31-0.155-0.48-0.178 c-0.17-0.023-0.349-0.023-0.519,0.008c-0.356,0.07-0.736,0.132-1.1,0.085c-0.372-0.039-0.713-0.186-1.038-0.356 c0.333,0.155,0.682,0.279,1.046,0.294c0.364,0.023,0.72-0.054,1.069-0.147c0.186-0.047,0.38-0.062,0.573-0.047 s0.387,0.085,0.55,0.17c0.008,0.008,0.016,0.008,0.023,0.016c-0.542-0.868-1.007-1.789-1.332-2.765 c-0.333-0.999-0.519-2.06-0.48-3.106c0.031-1.046,0.271-2.076,0.682-3.029c-0.325,0.976-0.488,2.006-0.434,3.021 c0.046,1.015,0.302,2.006,0.697,2.936c0.17,0.395,0.364,0.775,0.573,1.146c0.116-0.085,0.232-0.163,0.349-0.24 c0.194-0.132,0.356-0.271,0.488-0.449c0.271-0.372,0.511-0.767,0.689-1.193c0.077-0.31,0.17-0.62,0.225-0.93 c0.016-0.434-0.186-0.868-0.132-1.317c-0.023,0.449,0.194,0.86,0.201,1.317c-0.039,0.325-0.116,0.643-0.178,0.953v0.008 c-0.163,0.449-0.387,0.867-0.651,1.263c-0.167,0.264-0.432,0.467-0.656,0.639c-0.026,0.147-0.043,0.24-0.069,0.387 c0.218,0.348,0.45,0.685,0.694,1.011c0.604,0.806,1.286,1.549,2.014,2.262l0.139,0.132l0.039,0.031l0.016,0.016l0.008,0.008 l0.008,0.008l0.07,0.062l0.287,0.263l0.573,0.527c0.38,0.356,0.767,0.728,1.123,1.146c0.271,0.31,0.527,0.643,0.759,0.999 c0.287-0.186,0.581-0.356,0.891-0.503c0.186-0.093,0.403-0.132,0.604-0.147c0.201-0.016,0.403-0.016,0.604-0.047 c-0.194,0.054-0.395,0.077-0.596,0.116c-0.201,0.031-0.387,0.093-0.55,0.194c-0.294,0.17-0.565,0.372-0.829,0.589 c0.031,0.054,0.062,0.108,0.093,0.163c0.279,0.503,0.496,1.061,0.612,1.65c0.016,0.07,0.031,0.147,0.039,0.217l0.016,0.116 l0.008,0.046v0.039c0-0.031,0.008,0.046,0,0.039v0.008c0.016,0.139,0.023,0.271,0.031,0.411c0.016,0.271,0.023,0.542,0.031,0.813 c0.008,0.542-0.008,1.077-0.039,1.603c-0.062,1.015-0.17,2.022-0.294,3.013c0.023,0.023,0.047,0.054,0.062,0.077 c0.101,0.124,0.201,0.256,0.294,0.38l0.132,0.186l0.139,0.194c0.186,0.263,0.356,0.527,0.519,0.798 c0.287,0.472,0.542,0.961,0.782,1.456H52V36.63c-0.333-0.31-0.589-0.612-0.852-0.914c-0.496-0.565-1.038-1.123-1.572-1.72 c-0.527-0.596-1.046-1.239-1.495-1.936l-0.085-0.132l-0.008-0.016l-0.023-0.031l-0.039-0.062 c-0.054-0.085-0.108-0.178-0.163-0.263c-0.108-0.17-0.209-0.349-0.31-0.527c-0.194-0.356-0.38-0.713-0.542-1.084 c-0.403,0.209-0.821,0.411-1.263,0.55c-0.256,0.085-0.527,0.147-0.798,0.155c-0.132,0.008-0.271-0.008-0.403-0.039 c-0.132-0.031-0.256-0.093-0.356-0.178c0.225,0.155,0.503,0.186,0.759,0.155c0.263-0.031,0.511-0.108,0.759-0.209 c0.426-0.178,0.821-0.411,1.208-0.651c-0.287-0.682-0.511-1.387-0.658-2.115c-0.17-0.798-0.24-1.627-0.201-2.44 c0.016-0.411,0.062-0.813,0.132-1.216c0.039-0.201,0.078-0.403,0.124-0.596l0.147-0.565c-0.023,0.008-0.039,0.008-0.062,0.016 c-0.271,0.07-0.558,0.124-0.844,0.108c-0.565-0.016-1.115-0.155-1.634-0.38c-0.511-0.225-0.984-0.534-1.371-0.937 c-0.38-0.403-0.666-0.906-0.744-1.456c0.101,0.542,0.403,1.03,0.79,1.41c0.395,0.38,0.867,0.666,1.371,0.867 c0.503,0.194,1.046,0.302,1.58,0.302c0.263,0,0.527-0.054,0.782-0.132c0.07-0.023,0.132-0.039,0.201-0.062 c0.194-0.674,0.418-1.325,0.635-1.975c0.139-0.426,0.279-0.844,0.387-1.27c-0.116-0.844-0.364-1.673-0.759-2.432 c-0.434-0.844-1.046-1.603-1.797-2.184c-0.38-0.294-0.751-0.604-1.084-0.961c-0.333-0.349-0.627-0.751-0.806-1.201 c-0.186-0.449-0.248-0.937-0.256-1.417c-0.008-0.48,0.031-0.961,0.093-1.441c-0.047,0.48-0.078,0.96-0.062,1.441 c0.023,0.48,0.101,0.961,0.287,1.394c0.186,0.441,0.48,0.821,0.813,1.162c0.341,0.341,0.713,0.635,1.1,0.922 c0.782,0.573,1.425,1.34,1.89,2.192c0.325,0.596,0.565,1.239,0.72,1.905c0.023-0.101,0.039-0.209,0.054-0.31 c0.108-0.736,0.085-1.495-0.093-2.231c-0.093-0.364-0.217-0.72-0.372-1.077c-0.147-0.356-0.302-0.713-0.465-1.061 c-0.325-0.697-0.689-1.387-1.139-2.014c0.496,0.596,0.906,1.263,1.286,1.936c0.186,0.341,0.372,0.682,0.542,1.03 c0.108,0.209,0.209,0.426,0.302,0.651c0.287-0.24,0.496-0.573,0.643-0.937c0.17-0.426,0.279-0.891,0.387-1.356 c0.108-0.457,0.225-0.93,0.441-1.356c0.108-0.209,0.256-0.411,0.434-0.565c0.186-0.155,0.403-0.263,0.635-0.318 c-0.225,0.062-0.442,0.178-0.612,0.341s-0.302,0.356-0.403,0.573c-0.194,0.426-0.279,0.891-0.372,1.356 c-0.093,0.465-0.17,0.937-0.333,1.394c-0.077,0.232-0.186,0.457-0.318,0.666c-0.108,0.17-0.248,0.325-0.411,0.457 c0.023,0.062,0.046,0.124,0.07,0.186c0.124,0.38,0.209,0.775,0.256,1.17c0.046,0.403,0.046,0.806,0.016,1.201 c-0.062,0.798-0.248,1.58-0.442,2.332c-0.194,0.751-0.395,1.495-0.542,2.239l-0.101,0.565c-0.031,0.178-0.054,0.364-0.077,0.542 c-0.039,0.364-0.054,0.728-0.039,1.1c0.039,1.464,0.472,2.897,1.162,4.191c0.17,0.325,0.356,0.643,0.558,0.945 c0.101,0.155,0.201,0.302,0.31,0.457c0.054,0.077,0.108,0.147,0.163,0.217l0.178,0.24c0.411,0.55,0.883,1.061,1.387,1.565 c0.023-0.085,0.054-0.17,0.085-0.248c0.163-0.442,0.38-0.844,0.596-1.232c0.178-0.31,0.449-0.612,0.62-0.914v-8.528 c-0.046-0.124-0.186-0.248-0.24-0.364c-0.333-0.806-0.682-1.611-1.015-2.417c-0.325-0.813-0.635-1.634-0.852-2.486 c-0.217-0.852-0.341-1.727-0.271-2.603c-0.039,0.875,0.124,1.743,0.372,2.579c0.248,0.837,0.581,1.642,0.937,2.44 c0.232,0.511,0.472,1.015,0.705,1.526c-0.047-0.333-0.077-0.658-0.077-0.991c0-0.434,0.039-0.868,0.139-1.286 c0.054-0.209,0.217-0.426,0.302-0.627V6H12z M52,33.934v-2.13c-0.271,0.534-0.589,1.069-0.658,1.603 C51.535,33.578,51.814,33.756,52,33.934z M51.76,19.534c0.016,0.403,0.155,0.813,0.24,1.208v-2.665 c-0.016,0.07-0.124,0.139-0.139,0.209C51.768,18.69,51.744,19.116,51.76,19.534z"/></svg>