<svg xmlns="http://www.w3.org/2000/svg"  viewBox="0 0 48 48" width="90px" height="90px"><path fill="#1976d2" d="M30,26.625c0-3.125,4-3.75,4-10.625c0-5.705-2.965-9.228-8.375-10.875C22.5,4.174,18.393,4,14,4 c-2,0-6,0-6,0v18.875L13,28h8l10,11l9,5C40,44,30,29.625,30,26.625z M24,16c0,2.209-1.791,4-4,4h-1c-1.105,0-2-0.895-2-2v-4 c0-1.105,0.895-2,2-2h2c1.657,0,3,1.343,3,3V16z"/><path fill="#1565c0" d="M23.992,16.075C23.951,18.249,22.183,20,20,20c0,0-0.25,1-2.125,2.75C16.841,23.715,14,25,14,25 s11.096,0.733,14.197-5.429C27.678,17.786,26.203,16.396,23.992,16.075z"/><path fill="#1950a6" d="M22,9h-4c-1.657,0-3,1.343-3,3v3c0,2.537,1.69,4.61,3.515,4.934C17.646,19.716,17,18.936,17,18v-4 c0-1.105,0.895-2,2-2h2c1.657,0,3,1.343,3,3v1c0,0.026-0.007,0.05-0.008,0.075c2.211,0.321,3.685,1.71,4.204,3.495 C28.7,18.571,29,17.396,29,16C29,12.134,25.866,9,22,9z"/><path fill="#0d47a1" d="M18 9c-1.657 0-3 1.343-3 3v3c0 2.537 1.69 4.61 3.515 4.934C17.646 19.716 17 18.936 17 18v-4c0-1.105.895-2 2-2h2c1.657 0 3 1.343 3 3v1c0 2.209-1.791 4-4 4 0 0 6 0 6-6v-.996c0-2.14-1.681-3.947-3.82-4.002C22.12 9.001 22.06 9 22 9H18zM8 4v38l4 2 2-19C14 25 8 22 8 4z"/><path fill="#3aa2db" d="M12,44l2-19c0,0,6,0,9,2c1.304,0.87,4.928,5.104,8.25,8.875C35.875,41.125,40,44,40,44 s-6.875-0.5-9.613-0.884c-0.875-0.123-1.683-0.53-2.195-1.25C26.693,39.758,24,34.5,20,30.5c-0.235-0.235-0.5-0.495-1-0.495 c-0.509,0-1,0.397-1,1.005v10.269c0,0.43-0.275,0.813-0.684,0.949L12,44z"/></svg>